<svg width="74" height="74" viewBox="0 0 74 74" fill="none" xmlns="http://www.w3.org/2000/svg">
<path d="M74 0L37 37L0 74V41L41 0H74Z" fill="#D22856"/>
<path d="M27.953 37.2809L27.0201 38.2138L21.9979 37.0102L23.1725 42.0615L22.2976 42.9364L20.9683 36.899L15.395 35.7051L16.3086 34.7915L20.8909 35.8453L19.8469 31.2532L20.7169 30.3832L21.9012 35.9371L27.953 37.2809ZM21.9012 29.1989L22.6698 28.4303L26.7543 32.5148C26.9089 32.6695 27.0765 32.8403 27.257 33.0272C27.4342 33.2109 27.6066 33.393 27.7742 33.5734C27.9418 33.7539 28.0916 33.9198 28.2237 34.0713C28.3591 34.2195 28.4622 34.3355 28.5331 34.4193L28.5718 34.3807L26.5803 24.5198L27.4842 23.6159L34.5511 30.6828L33.7825 31.4514L29.7464 27.4152C29.5756 27.2444 29.3983 27.0608 29.2146 26.8642C29.0277 26.6644 28.8473 26.471 28.6733 26.2841C28.5025 26.094 28.351 25.9232 28.2189 25.7718C28.0835 25.6171 27.9788 25.4995 27.9047 25.4189L27.8612 25.4624L29.8769 35.3571L28.9681 36.2658L21.9012 29.1989ZM38.6501 26.5838L37.8235 27.4104L31.4817 21.0685L29.2581 23.2921L28.5331 22.567L33.797 17.3031L34.5221 18.0281L32.3082 20.242L38.6501 26.5838Z" fill="white"/>
</svg>
